# xmcd CD database file
#
# Track frame offsets:
#	150
#	18687
#	41360
#	56592
#	79145
#	100100
#	119777
#	138322
#	160980
#	180422
#
# Disc length: 2746 seconds
#
# Revision: 0
# Processed by: cddbd v1.5.1PL2 Copyright (c) Steve Scherf et al.
# Submitted via: CDex 1.60beta1
#
DISCID=810ab80a
DTITLE=The Gospel Hummingbirds - Taking Flight
DYEAR=1995
DGENRE=Jazz
TTITLE0=I'm Going Home
TTITLE1=Pray On
TTITLE2=Great Change
TTITLE3=Trouble Don't Last
TTITLE4=Measure For Measure
TTITLE5=Holding On
TTITLE6=Good Time
TTITLE7=Waiting For Jesus
TTITLE8=Blowin' In The Wind
TTITLE9=Time Is Winding Up
EXTD=YEAR: 1995
EXTT0=
EXTT1=
EXTT2=
EXTT3=
EXTT4=
EXTT5=
EXTT6=
EXTT7=
EXTT8=
EXTT9=
PLAYORDER=
